<svg xmlns="http://www.w3.org/2000/svg" xmlns:xlink="http://www.w3.org/1999/xlink" width="48" height="48" version="1.1" viewBox="0 0 12.7 12.7"><defs><linearGradient id="linearGradient4637" x1="-9.6" x2="-7.83" y1="-21.8" y2="-21.8" gradientTransform="matrix(1.5 0 0 1.5 20.9 38.1)" gradientUnits="userSpaceOnUse"><stop offset="0" stop-color="#2e2e37" stop-opacity=".204"/><stop offset=".146" stop-color="#c8c8d2" stop-opacity=".11"/><stop offset=".574" stop-color="#d6d6dd"/><stop offset="1" stop-color="#e8e8eb" stop-opacity="0"/></linearGradient><linearGradient id="linearGradient4635" x1="4.02" x2="5.8" y1=".847" y2="8.98" gradientTransform="matrix(1.5 0 0 1.48 -1.61e-7 .00546)" gradientUnits="userSpaceOnUse"><stop offset="0" stop-color="#2e2e37" stop-opacity=".2"/><stop offset=".146" stop-color="#c8c8d2" stop-opacity=".11"/><stop offset=".574" stop-color="#d6d6dd"/><stop offset="1" stop-color="#e8e8eb" stop-opacity="0"/></linearGradient></defs><rect width="12.7" height="12.7" x="0" y="0" fill-opacity="0"/><path fill="url(#linearGradient4635)" stroke-width="1.49" d="m8.95 2.01c1.45 1.27 1.15 2.79 0.72 4.2-0.87 2.2-2.12 4.59-4.52 4.59-1.58-0.2-2.21-2.44-1.78-4.28 1.28-4.28 1.88-4.19 2.62-5.82-3.26 0.31-5.37 3.06-5.45 6.96 0.076 2.54 1.83 4.44 4.29 4.44 4.04-0.1 5.67-2.5 6.77-4.9 1.1-2.71 0.3-6.67-2.91-6.77-8.91-0.155-5.83 6.01-3.82 7.58 0.67-0.97 2.65-7.14 4.08-6z"/><path fill="#7e7e7e" fill-opacity=".827" stroke-width="1.35" d="m8.7 1.75c1.29 1.15 1.02 3.26 0.64 4.54-0.79 2.01-2.07 4.91-4.24 4.91-2.29-0.3-2.39-3.37-2-5.06 1.15-3.9 2.26-3.39 2.92-4.88-3.82 0.43-4.89 3.88-4.92 6.35 0.08 2.32 1.66 4.09 3.88 4.09 3.63-0.1 5.12-2.32 6.12-4.5 1-2.48 0.2-6.09-2.65-6.19-8.02-0.139-5.4 4.72-3.59 6.16 0.6-0.89 2.55-6.46 3.84-5.42z"/><ellipse cx="7.78" cy="5.39" fill="url(#linearGradient4637)" rx="1.33" ry="1.47"/><ellipse cx="7.78" cy="5.39" fill="#868688" fill-opacity=".929" rx="1.1" ry="1.22"/></svg>